<svg xmlns="http://www.w3.org/2000/svg" xmlns:xlink="http://www.w3.org/1999/xlink" viewBox="0 0 1024 1024" width="1024" height="1024" preserveAspectRatio="xMidYMid meet" style="width: 100%; height: 100%; transform: translate3d(0px, 0px, 0px); content-visibility: visible;"><defs><clipPath id="__lottie_element_325"><rect width="1024" height="1024" x="0" y="0"></rect></clipPath><g id="__lottie_element_327"><g transform="matrix(1,0,0,1,104.1319580078125,459.0039978027344)" opacity="1" style="display: block;"><g opacity="1" transform="matrix(1,0,0,1,157.77499389648438,123.66500091552734)"><path fill="rgb(232,74,138)" fill-opacity="1" d=" M79.822998046875,-53.12699890136719 C-4.675000190734863,-123.41500091552734 -128.8699951171875,-114.12799835205078 -144.4250030517578,-77.81300354003906 C-157.52499389648438,-47.22999954223633 -135.8520050048828,0.37599998712539673 -135.8520050048828,0.37599998712539673 C-135.8520050048828,0.37599998712539673 -135.822998046875,0.34599998593330383 -135.7790069580078,0.3009999990463257 C-130.9600067138672,10.37399959564209 -114.0999984741211,40.54999923706055 -71.39600372314453,75.70600128173828 C-37.262001037597656,103.80699920654297 5.364999771118164,123.41400146484375 59.7400016784668,119.68299865722656 C114.11499786376953,115.9520034790039 127.53099822998047,86.9000015258789 133.48399353027344,72.7699966430664 C139.43699645996094,58.64099884033203 157.52499389648438,11.506999969482422 79.822998046875,-53.12699890136719z"></path></g></g></g><mask id="__lottie_element_327_1" mask-type="alpha"><use xlink:href="#__lottie_element_327"></use></mask><g id="__lottie_element_345"><g transform="matrix(1,0,0,1,354.10198974609375,61.5069580078125)" opacity="1" style="display: block;"><g opacity="1" transform="matrix(1,0,0,1,129.79800415039062,171.11599731445312)"><path fill="rgb(253,184,4)" fill-opacity="1" d=" M77.71299743652344,-58.939998626708984 C59.85300064086914,-96.7249984741211 30.641000747680664,-130.4600067138672 -1.2699999809265137,-148.0030059814453 C-1.3079999685287476,-148.0240020751953 -1.3459999561309814,-148.04200744628906 -1.3830000162124634,-148.06300354003906 C-1.2580000162124634,-148.28500366210938 -1.190999984741211,-148.4010009765625 -1.190999984741211,-148.4010009765625 C-1.190999984741211,-148.4010009765625 -35.483001708984375,-170.86599731445312 -70.2509994506836,-154.03700256347656 C-99.50900268554688,-139.9149932861328 -106.52300262451172,-103.27300262451172 -106.75499725341797,-102.02200317382812 C-106.75499725341797,-102.02200317382812 -106.84500122070312,-101.96399688720703 -106.84500122070312,-101.96399688720703 C-106.84500122070312,-101.96399688720703 -129.54800415039062,-43.22200012207031 -93.03299713134766,34.56999969482422 C-56.518001556396484,112.36299896240234 0.1589999943971634,170.86500549316406 70.1719970703125,133.3179931640625 C129.54800415039062,101.56600189208984 103.51100158691406,-4.406000137329102 77.71299743652344,-58.939998626708984z"></path></g></g></g><mask id="__lottie_element_345_1" mask-type="alpha"><use xlink:href="#__lottie_element_345"></use></mask><g id="__lottie_element_357"><g transform="matrix(1,0,0,1,553.9760131835938,43.916015625)" opacity="1" style="display: block;"><g opacity="1" transform="matrix(1,0,0,1,103.04900360107422,172.3699951171875)"><path fill="rgb(253,102,85)" fill-opacity="1" d=" M63.10900115966797,-116.4260025024414 C50.1349983215332,-135.1959991455078 31.280000686645508,-172.1199951171875 -13.968999862670898,-167.7050018310547 C-53.02399826049805,-163.89500427246094 -81.3280029296875,-110.58799743652344 -89.93499755859375,-75.38600158691406 C-102.79900360107422,-22.780000686645508 -96.28600311279297,46.46099853515625 -82.87000274658203,86.62799835205078 C-69.45500183105469,126.87300109863281 -31.590999603271484,172.1199951171875 18.417999267578125,164.81700134277344 C69.85600280761719,157.35499572753906 88.90699768066406,100.20099639892578 95.49600219726562,60.51100158691406 C102.79900360107422,16.773000717163086 98.11499786376953,-65.78099822998047 63.10900115966797,-116.4260025024414z"></path></g></g></g><mask id="__lottie_element_357_1" mask-type="alpha"><use xlink:href="#__lottie_element_357"></use></mask><g id="__lottie_element_369"><g transform="matrix(1,0,0,1,118.78997802734375,171.4019775390625)" opacity="1" style="display: block;"><g opacity="1" transform="matrix(1,0,0,1,145.49000549316406,130.7969970703125)"><path fill="rgb(252,133,148)" fill-opacity="1" d=" M143.73199462890625,43.180999755859375 C142.2239990234375,12.619000434875488 105.70899963378906,-55.17100143432617 41.64899826049805,-93.19400024414062 C-7.5269999504089355,-122.33999633789062 -37.3390007019043,-130.5469970703125 -73.68900299072266,-127.86100006103516 C-89.18800354003906,-126.49400329589844 -114.78900146484375,-121.93900299072266 -125.9209976196289,-106.84600067138672 C-145.24000549316406,-80.75399780273438 -131.95399475097656,-37.22999954223633 -131.95399475097656,-37.22999954223633 C-120.56199645996094,6.10099983215332 -83.55000305175781,51.12699890136719 -47.731998443603516,77.4739990234375 C-47.731998443603516,77.4739990234375 4.326000213623047,109.35099792480469 38.071998596191406,116.5260009765625 C104.00800323486328,130.54800415039062 126.58599853515625,99.06500244140625 126.58599853515625,99.06500244140625 C126.58599853515625,99.06500244140625 145.24000549316406,73.74199676513672 143.73199462890625,43.180999755859375z"></path></g></g></g><mask id="__lottie_element_369_1" mask-type="alpha"><use xlink:href="#__lottie_element_369"></use></mask><g id="__lottie_element_381"><g transform="matrix(1,0,0,1,191.7760009765625,5.0450439453125)" opacity="1" style="display: block;"><g opacity="1" transform="matrix(1,0,0,1,127.5780029296875,164.43800354003906)"><path fill="rgb(159,153,247)" fill-opacity="1" d=" M120.79000091552734,41.52299880981445 C114.16000366210938,-8.27400016784668 76.91100311279297,-58.90700149536133 76.91100311279297,-58.90700149536133 C76.91100311279297,-58.90700149536133 56.034000396728516,-91.13500213623047 24.91699981689453,-113.44100189208984 C6.433000087738037,-126.78099822998047 -56.4119987487793,-164.18800354003906 -96.2959976196289,-139.71499633789062 C-127.3280029296875,-120.67400360107422 -121.97000122070312,-53.915000915527344 -105.58399963378906,-7.866000175476074 C-92.8740005493164,27.85300064086914 -64.06800079345703,62.702999114990234 -64.06800079345703,62.702999114990234 C-64.06800079345703,62.702999114990234 -40.209999084472656,93.56700134277344 -7.76800012588501,118.65799713134766 C25.486000061035156,144.3780059814453 67.56099700927734,164.18800354003906 85.64299774169922,151.37100219726562 C103.3759994506836,138.7989959716797 127.3280029296875,90.61900329589844 120.79000091552734,41.52299880981445z"></path></g></g></g><mask id="__lottie_element_381_1" mask-type="alpha"><use xlink:href="#__lottie_element_381"></use></mask></defs><g clip-path="url(#__lottie_element_325)"><g transform="matrix(1,0,0,1,665.4290161132812,708.77099609375)" opacity="1" style="display: block;"><g opacity="1" transform="matrix(1,0,0,1,118.7239990234375,126.82099914550781)"><path fill="rgb(115,126,57)" fill-opacity="1" d=" M-118.4739990234375,-70.76699829101562 C-118.4739990234375,-70.76699829101562 2.181999921798706,47.66899871826172 2.181999921798706,47.66899871826172 C2.181999921798706,47.66899871826172 26.790000915527344,81.16699981689453 36.4739990234375,94.58200073242188 C46.159000396728516,107.99700164794922 59.57400131225586,125.14199829101562 63.30500030517578,125.85700225830078 C67.03600311279297,126.57099914550781 87.91200256347656,111.72799682617188 97.59700012207031,104.26599884033203 C107.28099822998047,96.80400085449219 118.4739990234375,87.91400146484375 118.4739990234375,83.38899993896484 C118.4739990234375,78.86499786376953 90.13500213623047,51.31999969482422 90.13500213623047,51.31999969482422 C90.13500213623047,51.31999969482422 -37.189998626708984,-126.5719985961914 -37.189998626708984,-126.5719985961914 C-37.189998626708984,-126.5719985961914 -118.4739990234375,-70.76699829101562 -118.4739990234375,-70.76699829101562z"></path></g></g><g transform="matrix(1,0,0,1,524.6090087890625,24.0140380859375)" opacity="1" style="display: block;"><g opacity="1" transform="matrix(1,0,0,1,102.7229995727539,335.125)"><path fill="rgb(147,166,26)" fill-opacity="1" d=" M-53.891998291015625,-330.3500061035156 C-59.92499923706055,-334.875 -85.96099853515625,-293.1210021972656 -94.13800048828125,-248.7469940185547 C-100.64700317382812,-213.4239959716797 -102.4729995727539,-118.96099853515625 -98.58300018310547,-72.20700073242188 C-94.13800048828125,-18.22800064086914 -2.4539999961853027,152.43899536132812 -2.4539999961853027,152.43899536132812 C-2.4539999961853027,152.43899536132812 29.933000564575195,326.7560119628906 29.933000564575195,326.7560119628906 C29.933000564575195,326.7560119628906 91.6729965209961,334.875 91.6729965209961,334.875 C91.6729965209961,334.875 102.4729995727539,227.44200134277344 100.1989974975586,135.73699951171875 C97.15499877929688,12.958999633789062 46.60300064086914,-78.8740005493164 46.60300064086914,-78.8740005493164 C46.60300064086914,-78.8740005493164 -30.475000381469727,-231.20399475097656 -38.33399963378906,-255.4149932861328 C-49.446998596191406,-290.10400390625 -49.446998596191406,-327.0159912109375 -53.891998291015625,-330.3500061035156z"></path></g></g><g transform="matrix(1,0,0,1,604.4320068359375,61.427978515625)" opacity="1" style="display: block;"><g opacity="1" transform="matrix(1,0,0,1,127.6709976196289,319.8330078125)"><path fill="rgb(147,166,26)" fill-opacity="1" d=" M-107.2249984741211,131.85000610351562 C-87.02899932861328,244.56300354003906 -74.83899688720703,306.1679992675781 -74.83899688720703,306.1679992675781 C-74.83899688720703,306.1679992675781 26.847999572753906,319.5830078125 26.847999572753906,319.5830078125 C26.847999572753906,319.5830078125 57.012001037597656,-48.104000091552734 60.34600067138672,-64.85299682617188 C63.68000030517578,-81.60299682617188 79.71499633789062,-156.45799255371094 93.12999725341797,-204.87899780273438 C104.24299621582031,-244.88699340820312 127.4219970703125,-312.9150085449219 121.78600311279297,-316.2489929199219 C116.22899627685547,-319.5830078125 97.177001953125,-293.864013671875 82.6510009765625,-282.7510070800781 C68.1240005493164,-271.63800048828125 24.784000396728516,-237.66299438476562 5.177000045776367,-212.34100341796875 C-28.320999145507812,-169.1580047607422 -58.16899871826172,-99.46299743652344 -58.16899871826172,-99.46299743652344 C-58.16899871826172,-99.46299743652344 -127.4209976196289,19.136999130249023 -107.2249984741211,131.85000610351562z"></path></g><g opacity="1" transform="matrix(1,0,0,1,139.23800659179688,313.0459899902344)"><path fill="rgb(181,208,35)" fill-opacity="1" d=" M41.31800079345703,-201.9029998779297 C36.47600173950195,-200.55299377441406 -4.166999816894531,-124.427001953125 -12.343000411987305,-91.64299774169922 C-20.518999099731445,-58.86000061035156 -39.17399978637695,-9.722999572753906 -42.111000061035156,71.48200225830078 C-44.6510009765625,141.73300170898438 -46.555999755859375,179.51699829101562 -46.555999755859375,179.51699829101562 C-46.555999755859375,179.51699829101562 -20.520000457763672,203.33099365234375 -20.520000457763672,203.33099365234375 C-20.520000457763672,203.33099365234375 -22.027000427246094,77.43499755859375 -15.279999732971191,29.01300048828125 C-8.612000465393066,-19.409000396728516 9.487000465393066,-92.59600067138672 17.503999710083008,-119.26799774169922 C27.187999725341797,-151.17799377441406 46.55699920654297,-203.33200073242188 41.31800079345703,-201.9029998779297z"></path></g></g><g transform="matrix(1,0,0,1,260.94000244140625,266.35498046875)" opacity="1" style="display: block;"><g opacity="1" transform="matrix(1,0,0,1,164.81399536132812,161.08799743652344)"><path stroke-linecap="butt" stroke-linejoin="miter" fill-opacity="0" stroke-miterlimit="10" stroke="rgb(115,126,57)" stroke-opacity="1" stroke-width="39" d=" M-67.31400299072266,-63.5890007019043 C-67.31400299072266,-63.5890007019043 4.7870001792907715,-23.947999954223633 67.31400299072266,63.5890007019043"></path></g></g><g transform="matrix(1,0,0,1,283.9530029296875,184.4000244140625)" opacity="1" style="display: block;"><g opacity="1" transform="matrix(1,0,0,1,199.84800720214844,255.16900634765625)"><path stroke-linecap="butt" stroke-linejoin="miter" fill-opacity="0" stroke-miterlimit="10" stroke="rgb(115,126,57)" stroke-opacity="1" stroke-width="38" d=" M-104.8479995727539,-160.16900634765625 C-54.82699966430664,-111.15799713134766 70.49800109863281,6.828000068664551 104.8479995727539,160.16900634765625"></path></g></g><g transform="matrix(1,0,0,1,441.30999755859375,249.5999755859375)" opacity="1" style="display: block;"><g opacity="1" transform="matrix(1,0,0,1,199.61599731445312,301)"><path stroke-linecap="butt" stroke-linejoin="miter" fill-opacity="0" stroke-miterlimit="10" stroke="rgb(115,126,57)" stroke-opacity="1" stroke-width="34" d=" M-114.61599731445312,-216 C-114.61599731445312,-216 74.82599639892578,68.20999908447266 114.61599731445312,216"></path></g></g><g transform="matrix(1,0,0,1,582.2780151367188,267.78997802734375)" opacity="1" style="display: block;"><g opacity="1" transform="matrix(1,0,0,1,135.02099609375,295.3160095214844)"><path stroke-linecap="butt" stroke-linejoin="miter" fill-opacity="0" stroke-miterlimit="10" stroke="rgb(115,126,57)" stroke-opacity="1" stroke-width="34" d=" M-50.020999908447266,-210.3159942626953 C-39.78900146484375,-126.19000244140625 2.2739999294281006,111.41100311279297 50.020999908447266,210.3159942626953"></path></g></g><g transform="matrix(1,0,0,1,254.58499145507812,538.2359619140625)" opacity="1" style="display: block;"><g opacity="1" transform="matrix(1,0,0,1,282.2099914550781,166.58599853515625)"><path stroke-linecap="butt" stroke-linejoin="miter" fill-opacity="0" stroke-miterlimit="10" stroke="rgb(115,126,57)" stroke-opacity="1" stroke-width="40" d=" M-182.2100067138672,-66.58599853515625 C-182.2100067138672,-66.58599853515625 26.381999969482422,66.58599853515625 182.2100067138672,47.354000091552734"></path></g></g><g transform="matrix(1,0,0,1,191.7760009765625,5.0450439453125)" opacity="1" style="display: block;"><g opacity="1" transform="matrix(1,0,0,1,127.5780029296875,164.43800354003906)"><path fill="rgb(159,153,247)" fill-opacity="1" d=" M120.79000091552734,41.52299880981445 C114.16000366210938,-8.27400016784668 76.91100311279297,-58.90700149536133 76.91100311279297,-58.90700149536133 C76.91100311279297,-58.90700149536133 56.034000396728516,-91.13500213623047 24.91699981689453,-113.44100189208984 C6.433000087738037,-126.78099822998047 -56.4119987487793,-164.18800354003906 -96.2959976196289,-139.71499633789062 C-127.3280029296875,-120.67400360107422 -121.97000122070312,-53.915000915527344 -105.58399963378906,-7.866000175476074 C-92.8740005493164,27.85300064086914 -64.06800079345703,62.702999114990234 -64.06800079345703,62.702999114990234 C-64.06800079345703,62.702999114990234 -40.209999084472656,93.56700134277344 -7.76800012588501,118.65799713134766 C25.486000061035156,144.3780059814453 67.56099700927734,164.18800354003906 85.64299774169922,151.37100219726562 C103.3759994506836,138.7989959716797 127.3280029296875,90.61900329589844 120.79000091552734,41.52299880981445z"></path></g></g><g mask="url(#__lottie_element_381_1)" style="display: block;"><g transform="matrix(1,0,0,1,191.92901611328125,10.864013671875)" opacity="1"><g opacity="1" transform="matrix(1,0,0,1,68.75499725341797,76.77200317382812)"><path fill="rgb(125,67,163)" fill-opacity="1" d=" M-37.625999450683594,-57.86800003051758 C-68.50499725341797,-38.57899856567383 -59.21699905395508,25.163000106811523 -59.21699905395508,25.163000106811523 C-59.21699905395508,25.163000106811523 -37.70500183105469,10.715999603271484 -9.128999710083008,21.988000869750977 C19.209999084472656,33.18000030517578 56.597999572753906,76.52200317382812 62.55099868774414,71.36199951171875 C68.50499725341797,66.12300109863281 31.038000106811523,20.87700080871582 30.48200035095215,-15.954999923706055 C30.163999557495117,-39.1349983215332 40.5629997253418,-55.64500045776367 40.5629997253418,-55.64500045776367 C40.5629997253418,-55.64500045776367 -7.7789998054504395,-76.52200317382812 -37.625999450683594,-57.86800003051758z"></path></g></g></g><g transform="matrix(1,0,0,1,118.78997802734375,171.4019775390625)" opacity="1" style="display: block;"><g opacity="1" transform="matrix(1,0,0,1,145.49000549316406,130.7969970703125)"><path fill="rgb(252,133,148)" fill-opacity="1" d=" M143.73199462890625,43.180999755859375 C142.2239990234375,12.619000434875488 105.70899963378906,-55.17100143432617 41.64899826049805,-93.19400024414062 C-7.5269999504089355,-122.33999633789062 -37.3390007019043,-130.5469970703125 -73.68900299072266,-127.86100006103516 C-89.18800354003906,-126.49400329589844 -114.78900146484375,-121.93900299072266 -125.9209976196289,-106.84600067138672 C-145.24000549316406,-80.75399780273438 -131.95399475097656,-37.22999954223633 -131.95399475097656,-37.22999954223633 C-120.56199645996094,6.10099983215332 -83.55000305175781,51.12699890136719 -47.731998443603516,77.4739990234375 C-47.731998443603516,77.4739990234375 4.326000213623047,109.35099792480469 38.071998596191406,116.5260009765625 C104.00800323486328,130.54800415039062 126.58599853515625,99.06500244140625 126.58599853515625,99.06500244140625 C126.58599853515625,99.06500244140625 145.24000549316406,73.74199676513672 143.73199462890625,43.180999755859375z"></path></g></g><g mask="url(#__lottie_element_369_1)" style="display: block;"><g transform="matrix(1,0,0,1,118.18499755859375,172.71795654296875)" opacity="1"><g opacity="1" transform="matrix(1,0,0,1,71.13600158691406,61.2140007019043)"><path fill="rgb(230,87,163)" fill-opacity="1" d=" M-50.96200180053711,-38.57899856567383 C-70.88600158691406,-11.668999671936035 -56.915000915527344,31.115999221801758 -56.915000915527344,31.115999221801758 C-56.915000915527344,31.115999221801758 -33.577999114990234,21.11400032043457 -11.82800006866455,25.559999465942383 C11.986000061035156,30.402000427246094 62.709999084472656,60.9630012512207 66.36100006103516,56.12099838256836 C70.88600158691406,50.24700164794922 31.75200080871582,14.366999626159668 20.55900001525879,-19.527999877929688 C13.177000045776367,-41.91299819946289 13.890999794006348,-60.16899871826172 13.890999794006348,-60.16899871826172 C13.890999794006348,-60.16899871826172 -34.45100021362305,-60.9640007019043 -50.96200180053711,-38.57899856567383z"></path></g></g></g><g transform="matrix(1,0,0,1,553.9760131835938,43.916015625)" opacity="1" style="display: block;"><g opacity="1" transform="matrix(1,0,0,1,103.04900360107422,172.3699951171875)"><path fill="rgb(253,102,85)" fill-opacity="1" d=" M63.10900115966797,-116.4260025024414 C50.1349983215332,-135.1959991455078 31.280000686645508,-172.1199951171875 -13.968999862670898,-167.7050018310547 C-53.02399826049805,-163.89500427246094 -81.3280029296875,-110.58799743652344 -89.93499755859375,-75.38600158691406 C-102.79900360107422,-22.780000686645508 -96.28600311279297,46.46099853515625 -82.87000274658203,86.62799835205078 C-69.45500183105469,126.87300109863281 -31.590999603271484,172.1199951171875 18.417999267578125,164.81700134277344 C69.85600280761719,157.35499572753906 88.90699768066406,100.20099639892578 95.49600219726562,60.51100158691406 C102.79900360107422,16.773000717163086 98.11499786376953,-65.78099822998047 63.10900115966797,-116.4260025024414z"></path></g></g><g mask="url(#__lottie_element_357_1)" style="display: block;"><g transform="matrix(1,0,0,1,582.7949829101562,43.80596923828125)" opacity="1"><g opacity="1" transform="matrix(1,0,0,1,65.10299682617188,75.86000061035156)"><path fill="rgb(205,22,52)" fill-opacity="1" d=" M-4.8420000076293945,-71.08499908447266 C-43.89699935913086,-67.2750015258789 -64.85399627685547,-19.329999923706055 -64.85399627685547,-19.329999923706055 C-64.85399627685547,-19.329999923706055 -35.08599853515625,-32.029998779296875 -17.145999908447266,-4.0879998207092285 C-2.7780001163482666,18.375999450683594 2.063999891281128,75.60900115966797 8.732000350952148,74.89399719238281 C15.399999618530273,74.18000030517578 17.860000610351562,13.059000015258789 23.099000930786133,-3.690000057220459 C34.053001403808594,-38.85599899291992 64.85399627685547,-29.410999298095703 64.85399627685547,-29.410999298095703 C64.85399627685547,-29.410999298095703 40.643001556396484,-75.61000061035156 -4.8420000076293945,-71.08499908447266z"></path></g></g></g><g transform="matrix(1,0,0,1,354.10198974609375,61.5069580078125)" opacity="1" style="display: block;"><g opacity="1" transform="matrix(1,0,0,1,129.79800415039062,171.11599731445312)"><path fill="rgb(253,184,4)" fill-opacity="1" d=" M77.71299743652344,-58.939998626708984 C59.85300064086914,-96.7249984741211 30.641000747680664,-130.4600067138672 -1.2699999809265137,-148.0030059814453 C-1.3079999685287476,-148.0240020751953 -1.3459999561309814,-148.04200744628906 -1.3830000162124634,-148.06300354003906 C-1.2580000162124634,-148.28500366210938 -1.190999984741211,-148.4010009765625 -1.190999984741211,-148.4010009765625 C-1.190999984741211,-148.4010009765625 -35.483001708984375,-170.86599731445312 -70.2509994506836,-154.03700256347656 C-99.50900268554688,-139.9149932861328 -106.52300262451172,-103.27300262451172 -106.75499725341797,-102.02200317382812 C-106.75499725341797,-102.02200317382812 -106.84500122070312,-101.96399688720703 -106.84500122070312,-101.96399688720703 C-106.84500122070312,-101.96399688720703 -129.54800415039062,-43.22200012207031 -93.03299713134766,34.56999969482422 C-56.518001556396484,112.36299896240234 0.1589999943971634,170.86500549316406 70.1719970703125,133.3179931640625 C129.54800415039062,101.56600189208984 103.51100158691406,-4.406000137329102 77.71299743652344,-58.939998626708984z"></path></g></g><g mask="url(#__lottie_element_345_1)" style="display: block;"><g transform="matrix(1,0,0,1,364.4179992675781,38.5789794921875)" opacity="1"><g opacity="1" transform="matrix(1,0,0,1,53.0369987487793,75.74099731445312)"><path fill="rgb(255,117,55)" fill-opacity="1" d=" M-16.27199935913086,-58.6619987487793 C-46.03900146484375,-44.29399871826172 -52.78799819946289,-6.5879998207092285 -52.78799819946289,-6.5879998207092285 C-52.78799819946289,-6.5879998207092285 -32.70500183105469,-2.063999891281128 -13.097999572753906,8.652000427246094 C17.70199966430664,25.559999465942383 37.78499984741211,75.48999786376953 43.57899856567383,72.15599822998047 C49.374000549316406,68.8219985961914 30.323999404907227,17.305999755859375 39.77000045776367,-19.44700050354004 C44.93000030517578,-39.61000061035156 52.78799819946289,-53.025001525878906 52.78799819946289,-53.025001525878906 C52.78799819946289,-53.025001525878906 18.496000289916992,-75.49099731445312 -16.27199935913086,-58.6619987487793z"></path></g></g></g><g transform="matrix(1,0,0,1,102.468017578125,187.2459716796875)" opacity="1" style="display: block;"><g opacity="1" transform="matrix(1,0,0,1,409.80999755859375,410.406005859375)"><path fill="rgb(149,164,29)" fill-opacity="1" d=" M-405.9880065917969,139.62899780273438 C-409.55999755859375,146.0590057373047 -373.2049865722656,141.8520050048828 -340.4209899902344,144.07400512695312 C-247.2239990234375,150.39300537109375 -61.3650016784668,186.82000732421875 37.665000915527344,201.46600341796875 C82.75299835205078,208.13400268554688 109.9010009765625,189.4810028076172 125.37999725341797,185.82899475097656 C149.03500366210938,180.2729949951172 154.99000549316406,185.82899475097656 154.99000549316406,185.82899475097656 C154.99000549316406,185.82899475097656 204.91799926757812,240.9969940185547 204.91799926757812,240.9969940185547 C204.91799926757812,240.9969940185547 220.9530029296875,284.02099609375 231.74899291992188,312.51800537109375 C244.4499969482422,346.0169982910156 260.0870056152344,407.1390075683594 267.4700012207031,408.6470031738281 C274.85198974609375,410.1549987792969 309.93798828125,380.3089904785156 312.1610107421875,375.14898681640625 C314.38299560546875,369.90899658203125 279.37701416015625,280.52801513671875 275.64599609375,267.906005859375 C271.9150085449219,255.28500366210938 260.00799560546875,221.70700073242188 260.00799560546875,221.70700073242188 C260.00799560546875,221.70700073242188 300.8890075683594,264.1759948730469 316.6059875488281,280.5270080566406 C335.260009765625,299.8970031738281 352.3269958496094,314.82000732421875 359.7879943847656,316.2489929199219 C367.25,317.6780090332031 395.5090026855469,274.4949951171875 395.5090026855469,267.8269958496094 C395.5090026855469,261.15899658203125 359.7879943847656,232.10800170898438 347.802001953125,220.12100219726562 C335.8949890136719,208.21400451660156 305.3340148925781,167.2530059814453 305.3340148925781,167.2530059814453 C305.3340148925781,167.2530059814453 288.18798828125,114.38700103759766 286.67999267578125,102.4010009765625 C277.0090026855469,25.54599952697754 323.8009948730469,-162.0019989013672 363.3599853515625,-273.0669860839844 C386.4599914550781,-337.9200134277344 409.55999755859375,-407.1390075683594 404.3210144042969,-410.1549987792969 C399.4630126953125,-409.1000061035156 286.2340087890625,-293.9259948730469 279.9320068359375,-281.322998046875 C270.15301513671875,-261.7650146484375 208.43099975585938,-154.29299926757812 212.14199829101562,-32.46699905395508 C214.36500549316406,18.972000122070312 228.81199645996094,59.375999450683594 217.38099670410156,64.3759994506836 C205.4739990234375,69.61499786376953 174.197998046875,18.892000198364258 160.7830047607422,-2.6989998817443848 C147.3679962158203,-24.291000366210938 88.5479965209961,-101.76499938964844 32.66400146484375,-135.3419952392578 C-83.53700256347656,-205.16200256347656 -193.927001953125,-204.09500122070312 -295.88800048828125,-218.0570068359375 C-295.88800048828125,-218.0570068359375 -324.9419860839844,-221.78799438476562 -337.64300537109375,-223.29600524902344 C-350.343994140625,-224.8040008544922 -372.64801025390625,-230.75799560546875 -372.64801025390625,-226.31199645996094 C-372.64801025390625,-221.86700439453125 -330.41900634765625,-180.8280029296875 -321.52899169921875,-171.93699645996094 C-269.29901123046875,-119.70800018310547 -168.66600036621094,-13.652999877929688 -116.1719970703125,25.638999938964844 C-89.34200286865234,45.722999572753906 -41.39699935913086,93.43000030517578 8.612000465393066,114.86199951171875 C50.36600112915039,132.72300720214844 93.5479965209961,138.5189971923828 93.5479965209961,146.69400024414062 C93.5479965209961,154.8699951171875 73.46499633789062,148.91600036621094 48.858001708984375,143.9149932861328 C29.648000717163086,140.02499389648438 9.722999572753906,133.2779998779297 -59.57500076293945,116.52899932861328 C-163.9239959716797,91.30899810791016 -221.10800170898438,97.37899780273438 -305.3349914550781,99.62100219726562 C-325.5469970703125,100.15899658203125 -386.93701171875,105.49500274658203 -405.9880065917969,139.62899780273438z"></path></g><g opacity="1" transform="matrix(1,0,0,1,381.97698974609375,400.6780090332031)"><path fill="rgb(181,208,35)" fill-opacity="1" d=" M-238.84300231933594,-161.2570037841797 C-237.9239959716797,-152.9029998779297 -57.222999572753906,-58.55799865722656 -23.486000061035156,-32.42399978637695 C15.965999603271484,-1.8619999885559082 60.73699951171875,47.27399826049805 83.04199981689453,68.1510009765625 C104.79199981689453,88.47200012207031 161.2310028076172,129.2740020751953 180.60000610351562,138.16400146484375 C199.968994140625,147.13400268554688 234.26100158691406,167.2169952392578 234.26100158691406,167.2169952392578 C234.26100158691406,167.2169952392578 239.49899291992188,161.97799682617188 239.49899291992188,161.97799682617188 C239.49899291992188,161.97799682617188 182.28399658203125,118.74400329589844 168.6929931640625,106.80899810791016 C58.79199981689453,10.28600025177002 5.01800012588501,-71.39600372314453 -179.1490020751953,-144.98399353027344 C-203.02200317382812,-154.5229949951172 -239.49899291992188,-167.2169952392578 -238.84300231933594,-161.2570037841797z"></path></g></g><g transform="matrix(1,0,0,1,661.7789916992188,694.0869750976562)" opacity="1" style="display: block;"><g opacity="1" transform="matrix(1,0,0,1,85.18599700927734,75.06500244140625)"><path fill="rgb(226,222,160)" fill-opacity="1" d=" M53.6609992980957,-72.03800201416016 C50.167999267578125,-74.81600189208984 -3.7309999465942383,-37.744998931884766 -21.590999603271484,-26.55299949645996 C-39.45199966430664,-15.359999656677246 -84.93599700927734,9.166999816894531 -84.93599700927734,13.690999984741211 C-84.93599700927734,18.216999053955078 -38.737998962402344,74.81500244140625 -35.00699996948242,74.81500244140625 C-31.275999069213867,74.81500244140625 13.414999961853027,48.777000427246094 31.275999069213867,39.09299850463867 C49.13600158691406,29.409000396728516 83.4280014038086,11.548999786376953 84.14299774169922,7.02400016784668 C84.93699645996094,2.4200000762939453 57.391998291015625,-69.10099792480469 53.6609992980957,-72.03800201416016z"></path></g></g><g transform="matrix(1,0,0,1,104.1319580078125,459.0039978027344)" opacity="1" style="display: block;"><g opacity="1" transform="matrix(1,0,0,1,157.77499389648438,123.66500091552734)"><path fill="rgb(232,74,138)" fill-opacity="1" d=" M79.822998046875,-53.12699890136719 C-4.675000190734863,-123.41500091552734 -128.8699951171875,-114.12799835205078 -144.4250030517578,-77.81300354003906 C-157.52499389648438,-47.22999954223633 -135.8520050048828,0.37599998712539673 -135.8520050048828,0.37599998712539673 C-135.8520050048828,0.37599998712539673 -135.822998046875,0.34599998593330383 -135.7790069580078,0.3009999990463257 C-130.9600067138672,10.37399959564209 -114.0999984741211,40.54999923706055 -71.39600372314453,75.70600128173828 C-37.262001037597656,103.80699920654297 5.364999771118164,123.41400146484375 59.7400016784668,119.68299865722656 C114.11499786376953,115.9520034790039 127.53099822998047,86.9000015258789 133.48399353027344,72.7699966430664 C139.43699645996094,58.64099884033203 157.52499389648438,11.506999969482422 79.822998046875,-53.12699890136719z"></path></g></g><g mask="url(#__lottie_element_327_1)" style="display: block;"><g transform="matrix(1,0,0,1,103.89599609375,477.45599365234375)" opacity="1"><g opacity="1" transform="matrix(1,0,0,1,77.3280029296875,56.25299835205078)"><path fill="rgb(174,11,27)" fill-opacity="1" d=" M-63.742000579833984,-28.854999542236328 C-77.0780029296875,1.6269999742507935 -55.16899871826172,49.33399963378906 -55.16899871826172,49.33399963378906 C-55.16899871826172,49.33399963378906 -38.73699951171875,32.02899932861328 -7.461999893188477,29.96500015258789 C21.194000244140625,28.139999389648438 70.01300048828125,56.00199890136719 74.06099700927734,46.79399871826172 C77.0780029296875,39.729000091552734 24.607999801635742,7.658999919891357 10.795999526977539,-16.15399932861328 C-2.063999891281128,-38.459999084472656 2.619999885559082,-55.60599899291992 2.619999885559082,-55.60599899291992 C2.619999885559082,-55.60599899291992 -51.834999084472656,-56.00299835205078 -63.742000579833984,-28.854999542236328z"></path></g></g></g></g></svg>