<svg xmlns="http://www.w3.org/2000/svg" xmlns:xlink="http://www.w3.org/1999/xlink" viewBox="0 0 1024 1024" width="1024" height="1024" preserveAspectRatio="xMidYMid meet" style="width: 100%; height: 100%; transform: translate3d(0px, 0px, 0px); content-visibility: visible;"><defs><clipPath id="__lottie_element_74"><rect width="1024" height="1024" x="0" y="0"></rect></clipPath></defs><g clip-path="url(#__lottie_element_74)"><g transform="matrix(1,0,0,1,29.048004150390625,501.2680358886719)" opacity="1" style="display: block;"><g opacity="1" transform="matrix(1,0,0,1,185.0019989013672,220.23599243164062)"><path fill="rgb(252,215,53)" fill-opacity="1" d=" M119.04299926757812,-25.599000930786133 C51.88199996948242,-47.770999908447266 45.755001068115234,-72.76399993896484 34.46699905395508,-114.93099975585938 C34.46699905395508,-114.93099975585938 6.328999996185303,-213.61599731445312 6.328999996185303,-213.61599731445312 C4.636000156402588,-219.98599243164062 -11.972999572753906,-219.98599243164062 -13.746999740600586,-213.61599731445312 C-13.746999740600586,-213.61599731445312 -32.854000091552734,-122.4280014038086 -32.854000091552734,-122.4280014038086 C-44.222999572753906,-80.4219970703125 -68.41000366210938,-47.04399871826172 -109.69000244140625,-33.417999267578125 C-109.69000244140625,-33.417999267578125 -175.47999572753906,-4.877999782562256 -175.47999572753906,-4.877999782562256 C-184.59100341796875,-1.8949999809265137 -184.7519989013672,11.005000114440918 -175.64199829101562,14.069000244140625 C-175.64199829101562,14.069000244140625 -109.36799621582031,37.53099822998047 -109.36799621582031,37.53099822998047 C-68.2490005493164,51.15700149536133 -44.222999572753906,84.53500366210938 -32.77399826049805,126.37999725341797 C-32.77399826049805,126.37999725341797 -13.666000366210938,213.61599731445312 -13.666000366210938,213.61599731445312 C-11.892000198364258,219.98500061035156 4.636000156402588,219.98500061035156 6.328999996185303,213.61599731445312 C6.328999996185303,213.61599731445312 28.743000030517578,126.78299713134766 28.743000030517578,126.78299713134766 C40.111000061035156,84.69599914550781 57.5260009765625,51.23699951171875 113.39900207519531,37.53099822998047 C113.39900207519531,37.53099822998047 175.64199829101562,14.069000244140625 175.64199829101562,14.069000244140625 C184.7519989013672,10.923999786376953 184.67100524902344,-1.975000023841858 175.4810028076172,-4.956999778747559 C175.4810028076172,-4.956999778747559 119.04299926757812,-25.599000930786133 119.04299926757812,-25.599000930786133z"></path></g><g opacity="1" transform="matrix(1,0,0,1,275.1000061035156,110.30400085449219)"><path fill="rgb(255,237,87)" fill-opacity="1" d=" M-78.447998046875,-6.449999809265137 C-71.59500122070312,56.92100143432617 -68.12799835205078,74.49700164794922 -16.770000457763672,87.63899993896484 C-16.770000457763672,87.63899993896484 90.21900177001953,108.52100372314453 90.21900177001953,108.52100372314453 C89.09100341796875,106.98899841308594 87.47799682617188,105.6989974975586 85.302001953125,105.05400085449219 C85.302001953125,105.05400085449219 28.86400032043457,84.33300018310547 28.86400032043457,84.33300018310547 C-30.072999954223633,64.177001953125 -46.35900115966797,38.53799819946289 -57.404998779296875,-12.73900032043457 C-68.44999694824219,-64.01599884033203 -80.22200012207031,-97.4749984741211 -80.22200012207031,-97.4749984741211 C-84.33399963378906,-108.52100372314453 -90.21900177001953,-107.95700073242188 -90.21900177001953,-107.95700073242188 C-90.21900177001953,-107.95700073242188 -78.447998046875,-6.449999809265137 -78.447998046875,-6.449999809265137z"></path></g><g opacity="1" transform="matrix(1,0,0,1,275.9070129394531,334.8840026855469)"><path fill="rgb(244,180,0)" fill-opacity="1" d=" M-77.31900024414062,-9.795999526977539 C-77.31900024414062,-69.53900146484375 -44.66600036621094,-99.12799835205078 7.256999969482422,-99.12799835205078 C7.256999969482422,-99.12799835205078 88.04299926757812,-102.43399810791016 88.04299926757812,-102.43399810791016 C88.04299926757812,-102.43399810791016 83.36699676513672,-96.22599792480469 75.2229995727539,-94.29000091552734 C75.2229995727539,-94.29000091552734 22.493000030517578,-77.11699676513672 22.493000030517578,-77.11699676513672 C-22.253000259399414,-59.13800048828125 -42.6510009765625,-50.10900115966797 -56.518001556396484,11.086000442504883 C-56.518001556396484,11.086000442504883 -74.41699981689453,82.27799987792969 -77.8030014038086,89.7760009765625 C-82.47899627685547,100.25800323486328 -88.04199981689453,102.43399810791016 -88.04199981689453,102.43399810791016 C-88.04199981689453,102.43399810791016 -77.31900024414062,-9.795999526977539 -77.31900024414062,-9.795999526977539z"></path></g></g><g style="display: none;"><g><path></path></g><g><path></path></g><g><path></path></g></g><g transform="matrix(1,0,0,1,340.9049987792969,43.23699951171875)" opacity="1" style="display: block;"><g opacity="1" transform="matrix(1,0,0,1,325.8940124511719,460.70001220703125)"><path fill="rgb(252,215,53)" fill-opacity="1" d=" M309.5190124511719,-17.496000289916992 C309.5190124511719,-17.496000289916992 197.20799255371094,-53.696998596191406 197.20799255371094,-53.696998596191406 C125.37200164794922,-77.4000015258789 83.28700256347656,-135.52999877929688 63.53300094604492,-208.5760040283203 C63.53300094604492,-208.5760040283203 14.109000205993652,-449.3240051269531 14.109000205993652,-449.3240051269531 C12.819000244140625,-454.0799865722656 9.673999786376953,-460.4490051269531 -0.0010000000474974513,-460.4490051269531 C-8.142999649047852,-460.4490051269531 -12.819999694824219,-454.0799865722656 -14.109999656677246,-449.3240051269531 C-14.109999656677246,-449.3240051269531 -63.53300094604492,-208.49600219726562 -63.53300094604492,-208.49600219726562 C-83.36699676513672,-135.4510040283203 -125.37200164794922,-77.31999969482422 -197.20799255371094,-53.61600112915039 C-197.20799255371094,-53.61600112915039 -309.5199890136719,-17.413999557495117 -309.5199890136719,-17.413999557495117 C-325.40301513671875,-12.253999710083008 -325.6449890136719,10.159000396728516 -309.8420104980469,15.5600004196167 C-309.8420104980469,15.5600004196167 -196.7239990234375,54.50400161743164 -196.7239990234375,54.50400161743164 C-125.12899780273438,78.28800201416016 -83.36699676513672,136.33799743652344 -63.53300094604492,209.06100463867188 C-63.53300094604492,209.06100463867188 -14.029000282287598,447.14599609375 -14.029000282287598,447.14599609375 C-12.73900032043457,451.90301513671875 -10.07800006866455,460.45001220703125 0.0820000022649765,460.45001220703125 C10.803999900817871,460.45001220703125 12.899999618530273,451.90301513671875 14.1899995803833,447.14599609375 C14.1899995803833,447.14599609375 63.694000244140625,209.06100463867188 63.694000244140625,209.06100463867188 C83.5270004272461,136.25599670410156 125.29000091552734,78.20700073242188 196.88600158691406,54.50400161743164 C196.88600158691406,54.50400161743164 310.00201416015625,15.5600004196167 310.00201416015625,15.5600004196167 C325.6440124511719,10.07800006866455 325.4020080566406,-12.336000442504883 309.5190124511719,-17.496000289916992z"></path></g><g opacity="1" transform="matrix(1,0,0,1,489.885986328125,227.73399353027344)"><path fill="rgb(255,237,87)" fill-opacity="1" d=" M156.17100524902344,225.54800415039062 C154.3979949951172,221.11300659179688 150.92999267578125,217.2449951171875 145.52699279785156,215.4709930419922 C145.52699279785156,215.4709930419922 33.21799850463867,179.27000427246094 33.21799850463867,179.27000427246094 C-38.61899948120117,155.56700134277344 -80.70600128173828,97.43499755859375 -100.45999908447266,24.388999938964844 C-100.45999908447266,24.388999938964844 -149.88299560546875,-216.35800170898438 -149.88299560546875,-216.35800170898438 C-150.60800170898438,-219.0989990234375 -153.18800354003906,-224.0970001220703 -156.17100524902344,-225.54800415039062 C-156.17100524902344,-225.54800415039062 -140.20700073242188,16.083999633789062 -140.20700073242188,16.083999633789062 C-128.35400390625,126.37899780273438 -118.1969985961914,178.30299377441406 -30.15399932861328,193.4600067138672 C45.47200012207031,206.52200317382812 132.9510040283203,221.51699829101562 156.17100524902344,225.54800415039062z"></path></g><g opacity="1" transform="matrix(1,0,0,1,486.1369934082031,693.5040283203125)"><path fill="rgb(244,180,0)" fill-opacity="1" d=" M160.16099548339844,-227.64500427246094 C160.16099548339844,-227.64500427246094 -34.62900161743164,-182.97799682617188 -34.62900161743164,-182.97799682617188 C-103.24099731445312,-165.56300354003906 -141.05499267578125,-125.81600189208984 -141.05499267578125,-21.80900001525879 C-141.05499267578125,-21.80900001525879 -160.16200256347656,227.6439971923828 -160.16200256347656,227.6439971923828 C-153.6320037841797,227 -148.31100463867188,223.45199584960938 -146.05299377441406,214.34100341796875 C-146.05299377441406,214.34100341796875 -96.54900360107422,-23.7450008392334 -96.54900360107422,-23.7450008392334 C-76.71600341796875,-96.54900360107422 -34.95199966430664,-154.59800720214844 36.643001556396484,-178.30099487304688 C36.643001556396484,-178.30099487304688 149.75999450683594,-217.24400329589844 149.75999450683594,-217.24400329589844 C155.08099365234375,-219.17799377441406 158.46800231933594,-223.1300048828125 160.16099548339844,-227.64500427246094z"></path></g></g><g transform="matrix(1,0,0,1,216.9119873046875,43.97100830078125)" opacity="1" style="display: block;"><g opacity="1" transform="matrix(1,0,0,1,142.70700073242188,172.45799255371094)"><path fill="rgb(244,180,0)" fill-opacity="1" d=" M118.03500366210938,6.449999809265137 C122.55000305175781,4.918000221252441 122.38899993896484,-1.531999945640564 117.79299926757812,-2.822000026702881 C117.79299926757812,-2.822000026702881 55.55099868774414,-19.591999053955078 55.55099868774414,-19.591999053955078 C42.48899841308594,-23.138999938964844 32.33000183105469,-33.21699905395508 28.621999740600586,-46.198001861572266 C28.621999740600586,-46.198001861572266 4.111999988555908,-147.38299560546875 4.111999988555908,-147.38299560546875 C2.9030001163482666,-152.30099487304688 -4.111999988555908,-152.30099487304688 -5.321000099182129,-147.302001953125 C-5.321000099182129,-147.302001953125 -28.3799991607666,-46.520999908447266 -28.3799991607666,-46.520999908447266 C-31.927000045776367,-33.137001037597656 -42.409000396728516,-22.816999435424805 -55.792999267578125,-19.350000381469727 C-55.792999267578125,-19.350000381469727 -117.63200378417969,-3.305999994277954 -117.63200378417969,-3.305999994277954 C-122.22799682617188,-2.0959999561309814 -122.55000305175781,4.354000091552734 -118.03500366210938,5.966000080108643 C-118.03500366210938,5.966000080108643 -52.808998107910156,28.541000366210938 -52.808998107910156,28.541000366210938 C-41.11899948120117,32.573001861572266 -32.0890007019043,42.08599853515625 -28.541000366210938,53.9379997253418 C-28.541000366210938,53.9379997253418 -5.241000175476074,147.3820037841797 -5.241000175476074,147.3820037841797 C-4.031000137329102,152.22000122070312 2.9030001163482666,152.30099487304688 4.111999988555908,147.3820037841797 C4.111999988555908,147.3820037841797 28.2189998626709,53.61600112915039 28.2189998626709,53.61600112915039 C31.847000122070312,41.76300048828125 40.957000732421875,32.33000183105469 52.729000091552734,28.3799991607666 C52.729000091552734,28.3799991607666 118.03500366210938,6.449999809265137 118.03500366210938,6.449999809265137z"></path><path stroke-linecap="butt" stroke-linejoin="miter" fill-opacity="0" stroke-miterlimit="10" stroke="rgb(244,180,0)" stroke-opacity="1" stroke-width="8.063" d=" M118.03500366210938,6.449999809265137 C122.55000305175781,4.918000221252441 122.38899993896484,-1.531999945640564 117.79299926757812,-2.822000026702881 C117.79299926757812,-2.822000026702881 55.55099868774414,-19.591999053955078 55.55099868774414,-19.591999053955078 C42.48899841308594,-23.138999938964844 32.33000183105469,-33.21699905395508 28.621999740600586,-46.198001861572266 C28.621999740600586,-46.198001861572266 4.111999988555908,-147.38299560546875 4.111999988555908,-147.38299560546875 C2.9030001163482666,-152.30099487304688 -4.111999988555908,-152.30099487304688 -5.321000099182129,-147.302001953125 C-5.321000099182129,-147.302001953125 -28.3799991607666,-46.520999908447266 -28.3799991607666,-46.520999908447266 C-31.927000045776367,-33.137001037597656 -42.409000396728516,-22.816999435424805 -55.792999267578125,-19.350000381469727 C-55.792999267578125,-19.350000381469727 -117.63200378417969,-3.305999994277954 -117.63200378417969,-3.305999994277954 C-122.22799682617188,-2.0959999561309814 -122.55000305175781,4.354000091552734 -118.03500366210938,5.966000080108643 C-118.03500366210938,5.966000080108643 -52.808998107910156,28.541000366210938 -52.808998107910156,28.541000366210938 C-41.11899948120117,32.573001861572266 -32.0890007019043,42.08599853515625 -28.541000366210938,53.9379997253418 C-28.541000366210938,53.9379997253418 -5.241000175476074,147.3820037841797 -5.241000175476074,147.3820037841797 C-4.031000137329102,152.22000122070312 2.9030001163482666,152.30099487304688 4.111999988555908,147.3820037841797 C4.111999988555908,147.3820037841797 28.2189998626709,53.61600112915039 28.2189998626709,53.61600112915039 C31.847000122070312,41.76300048828125 40.957000732421875,32.33000183105469 52.729000091552734,28.3799991607666 C52.729000091552734,28.3799991607666 118.03500366210938,6.449999809265137 118.03500366210938,6.449999809265137z"></path></g></g></g></svg>